<svg id="Camada_1" data-name="Camada 1" xmlns="http://www.w3.org/2000/svg" viewBox="0 0 1004 530.58"><title>ifood-preto</title><path d="M0,304.6H76.41L118.87,93.4H42.45ZM46.66,68.21h76.73L136,5H59.3ZM106.13,364h76.42l46.69-228.18h57.31L295,93.4H238.79l2.13-9.55c3.18-18,9.55-38.21,38.2-38.21,17,0,32.91,1.06,48.82,8.49l8.5-44.57A167.66,167.66,0,0,0,281.25,0c-61.56,0-104,36.09-119.93,93.4H134.79l-8.49,42.45h26.53Z" transform="translate(0 0)"/><path d="M348.11,308.85c90.21,0,152.83-81.73,152.83-148.59,0-49.88-45.64-71.11-90.21-71.11C312,89.15,257.9,177.29,257.9,237.74c0,49.88,46.7,71.11,90.21,71.11m242,0c90.21,0,152.83-81.73,152.83-148.59,0-49.88-46.7-71.11-91.28-71.11-98.7,0-152.82,88.09-152.82,148.59,0,49.88,47.76,71.11,91.27,71.11m277-4.25h75.35L1004,4.29H927.59L909.54,93.44,877.7,90.26c-74.29,0-142.21,95.51-142.21,163.44,0,27.59,18,55.19,48.82,55.19,43.51,0,74.29-21.23,87-42.46h4.24ZM631.48,462.74A295,295,0,0,1,419.22,529.6c-100.83-6.37-173-83.85-185.73-165.57h4.24c23.35,51,79.6,98.71,148.59,106.13,70,8.49,153.89-23.34,199.52-66.86L534.9,364H688.79l-34,163.45L632.5,463.8Z" transform="translate(0 0)"/></svg>