<svg id="Camada_1" data-name="Camada 1" xmlns="http://www.w3.org/2000/svg" viewBox="0 0 1319.52 1780"><defs><style>.cls-1,.cls-3{fill:#fff;}.cls-1,.cls-4{fill-rule:evenodd;}.cls-2,.cls-4{fill:none;stroke:#fff;}.cls-2{stroke-width:66px;}.cls-4{stroke-linecap:round;stroke-width:67px;}</style></defs><title>Logo-Icon</title><path class="cls-1" d="M1335.1,1046.2c-228.6,0-375.43-116-375.43-116s-146.84,116-375.43,116S299.91,959,299.91,866.76s96.3-132.5,124.22-132.5,54.78,44.22,55.21,55.21S468.05,806,460,806s-17.82-11-30.37-11c-57.88,0-98.57,132.5,35.89,132.5s302.77-80,392-80,102.14,41.41,102.14,41.41,12.92-41.41,102.14-41.41,257.53,80,392,80S1547.56,795,1489.68,795c-12.54,0-22.33,11-30.36,11s-19.75-5.58-19.33-16.56,27.3-55.21,55.21-55.21,124.23,40.26,124.23,132.5S1563.69,1046.2,1335.1,1046.2Z" transform="translate(-299.91 -54)"/><path class="cls-1" d="M1187,1375c-3.19,18.13-12.21,92.57-22.09,120.94s-29.29,67.95-35.88,88-42.38,65-63.49,85.21S982.91,1803.62,960.59,1834c-22.32-30.44-83.78-145-104.9-165.27s-56.9-65.34-63.49-85.4-26-59.71-35.89-88.14-18.89-103-22.08-121.21-21.78-35.28-22.09-57.84,52.07,60.6,132.51,60.6,115.94-49.58,115.94-49.58v1.08s35.5,49.48,115.94,49.48,132.81-83,132.5-60.47S1190.14,1356.84,1187,1375Z" transform="translate(-299.91 -54)"/><rect class="cls-2" x="58.09" y="1114" width="1204" height="265" rx="92.22"/><path class="cls-3" d="M984,121a538.69,538.69,0,0,1,302.71,92.44A543.26,543.26,0,0,1,1483,451.74a535.63,535.63,0,0,1,38.46,143.76H395.07a538.56,538.56,0,0,1,88.37-235.71,543.26,543.26,0,0,1,238.3-196.26A538.06,538.06,0,0,1,932.5,121H984m0-67H932.5C596.43,54,324,326.43,324,662.5H1592.5C1592.5,326.43,1320.07,54,984,54Z" transform="translate(-299.91 -54)"/><path class="cls-4" d="M707.5,244.5c-56,25-182,136-215.5,242.5" transform="translate(-299.91 -54)"/></svg>