<svg id="Capa_1" data-name="Capa 1" xmlns="http://www.w3.org/2000/svg" viewBox="0 0 509.54 512"><defs><style>.cls-1{fill:#369973;fill-rule:evenodd;}</style></defs><title>whatsapp-verde-escuro</title><g id="WA_Logo" data-name="WA Logo"><path class="cls-1" d="M435.32,74.41A252,252,0,0,0,255.85,0C116,0,2.19,113.79,2.13,253.7A253.25,253.25,0,0,0,36,380.54L0,512l134.48-35.29a253.5,253.5,0,0,0,121.24,30.9h.11c139.81,0,253.65-113.82,253.71-253.72A252,252,0,0,0,435.32,74.41ZM255.85,464.75h-.07a210.35,210.35,0,0,1-107.33-29.4l-7.7-4.57L60.92,451.71l21.32-77.82-5-8A210.14,210.14,0,0,1,45,253.7C45,137.43,139.64,42.84,256,42.84s210.83,94.48,210.79,210.93v.08C466.66,370.15,372.07,464.75,255.85,464.75ZM371.52,306.82c-6.34-3.18-37.51-18.52-43.33-20.63s-10-3.18-14.27,3.15S297.55,310,293.84,314.22s-7.4,4.76-13.74,1.58-26.77-9.86-51-31.47c-18.84-16.81-31.58-37.57-35.27-43.92s-.38-9.78,2.78-12.93c2.85-2.84,6.33-7.41,9.51-11.12s4.25-6.31,6.38-10.56,1.07-7.93-.53-11.11-14.28-34.37-19.55-47.06c-5.14-12.38-10.36-10.69-14.27-10.88-3.69-.2-7.91-.22-12.16-.22a23.24,23.24,0,0,0-16.89,7.94c-5.81,6.36-22.19,21.7-22.19,52.88s22.72,61.36,25.88,65.58,44.69,68.27,108.28,95.73A368.46,368.46,0,0,0,297.23,372c15.19,4.82,29,4.14,39.94,2.52,12.18-1.82,37.5-15.34,42.79-30.15s5.29-27.52,3.69-30.14S377.85,310,371.52,306.82Z" transform="translate(0 0)"/></g></svg>