<svg id="Capa_1" data-name="Capa 1" xmlns="http://www.w3.org/2000/svg" viewBox="0 0 509.55 512"><defs><style>.cls-1{fill:#fff;fill-rule:evenodd;}</style></defs><title>whatsapp-branco</title><g id="WA_Logo" data-name="WA Logo"><path class="cls-1" d="M436.54,74.41A252,252,0,0,0,257.07,0C117.23,0,3.41,113.79,3.35,253.7A253.21,253.21,0,0,0,37.23,380.54L1.22,512,135.7,476.71a253.52,253.52,0,0,0,121.24,30.9h.11c139.81,0,253.65-113.82,253.71-253.72A252,252,0,0,0,436.54,74.41ZM257.07,464.75H257a210.38,210.38,0,0,1-107.33-29.4l-7.7-4.57L62.14,451.71l21.32-77.82-5-8A210.23,210.23,0,0,1,46.21,253.7c0-116.27,94.65-210.86,211-210.86A210.86,210.86,0,0,1,468,253.85C467.88,370.15,373.29,464.75,257.07,464.75ZM372.74,306.82c-6.34-3.18-37.51-18.52-43.33-20.63s-10-3.18-14.27,3.15S298.77,310,295.06,314.22s-7.4,4.76-13.74,1.58-26.77-9.86-51-31.47c-18.84-16.81-31.58-37.57-35.27-43.92s-.38-9.78,2.78-12.93c2.85-2.84,6.33-7.41,9.51-11.12s4.25-6.31,6.38-10.56,1.07-7.93-.53-11.11-14.28-34.37-19.55-47.06c-5.14-12.38-10.36-10.69-14.27-10.88-3.69-.2-7.91-.22-12.16-.22a23.21,23.21,0,0,0-16.89,7.94c-5.81,6.36-22.19,21.7-22.19,52.88s22.72,61.36,25.88,65.58,44.69,68.27,108.28,95.73A368.85,368.85,0,0,0,298.45,372c15.19,4.82,29,4.14,39.94,2.52,12.18-1.82,37.5-15.34,42.79-30.15s5.29-27.52,3.69-30.14S379.07,310,372.74,306.82Z" transform="translate(-1.22)"/></g></svg>